<mxfile host="app.diagrams.net" modified="2023-04-06T05:42:31.308Z" agent="Mozilla/5.0 (Macintosh; Intel Mac OS X 10.15; rv:109.0) Gecko/20100101 Firefox/111.0" etag="5Kwsu-GUPcCRb2aFwKcf" version="21.1.4" type="google">
  <diagram name="Pagina-1" id="ftsZj-o0kvIJ6vPIrLDc">
    <mxGraphModel grid="1" page="1" gridSize="10" guides="1" tooltips="1" connect="1" arrows="1" fold="1" pageScale="1" pageWidth="827" pageHeight="1169" math="0" shadow="0">
      <root>
        <mxCell id="0" />
        <mxCell id="1" parent="0" />
        <mxCell id="Uuxh6VNHOw4QBVwTyGZb-11" value="" style="edgeStyle=orthogonalEdgeStyle;rounded=0;orthogonalLoop=1;jettySize=auto;html=1;" edge="1" parent="1" source="Uuxh6VNHOw4QBVwTyGZb-1" target="Uuxh6VNHOw4QBVwTyGZb-3">
          <mxGeometry relative="1" as="geometry" />
        </mxCell>
        <mxCell id="Uuxh6VNHOw4QBVwTyGZb-1" value="START" style="ellipse;whiteSpace=wrap;html=1;" vertex="1" parent="1">
          <mxGeometry x="354" y="10" width="120" height="40" as="geometry" />
        </mxCell>
        <mxCell id="Uuxh6VNHOw4QBVwTyGZb-2" value="base" style="shape=parallelogram;perimeter=parallelogramPerimeter;whiteSpace=wrap;html=1;fixedSize=1;" vertex="1" parent="1">
          <mxGeometry x="354" y="80" width="120" height="30" as="geometry" />
        </mxCell>
        <mxCell id="Uuxh6VNHOw4QBVwTyGZb-12" value="" style="edgeStyle=orthogonalEdgeStyle;rounded=0;orthogonalLoop=1;jettySize=auto;html=1;" edge="1" parent="1" source="Uuxh6VNHOw4QBVwTyGZb-3" target="Uuxh6VNHOw4QBVwTyGZb-5">
          <mxGeometry relative="1" as="geometry" />
        </mxCell>
        <mxCell id="Uuxh6VNHOw4QBVwTyGZb-3" value="altezza" style="shape=parallelogram;perimeter=parallelogramPerimeter;whiteSpace=wrap;html=1;fixedSize=1;" vertex="1" parent="1">
          <mxGeometry x="350" y="130" width="120" height="30" as="geometry" />
        </mxCell>
        <mxCell id="Uuxh6VNHOw4QBVwTyGZb-13" value="" style="edgeStyle=orthogonalEdgeStyle;rounded=0;orthogonalLoop=1;jettySize=auto;html=1;" edge="1" parent="1" source="Uuxh6VNHOw4QBVwTyGZb-5" target="Uuxh6VNHOw4QBVwTyGZb-6">
          <mxGeometry relative="1" as="geometry" />
        </mxCell>
        <mxCell id="Uuxh6VNHOw4QBVwTyGZb-5" value="ipotenusa = sqrt (base*base + altezza *altezza)" style="rounded=0;whiteSpace=wrap;html=1;" vertex="1" parent="1">
          <mxGeometry x="350" y="190" width="120" height="60" as="geometry" />
        </mxCell>
        <mxCell id="Uuxh6VNHOw4QBVwTyGZb-14" value="" style="edgeStyle=orthogonalEdgeStyle;rounded=0;orthogonalLoop=1;jettySize=auto;html=1;" edge="1" parent="1" source="Uuxh6VNHOw4QBVwTyGZb-6" target="Uuxh6VNHOw4QBVwTyGZb-7">
          <mxGeometry relative="1" as="geometry" />
        </mxCell>
        <mxCell id="Uuxh6VNHOw4QBVwTyGZb-6" value="perimetro = base + altezza + ipotenusa" style="rounded=0;whiteSpace=wrap;html=1;" vertex="1" parent="1">
          <mxGeometry x="350" y="260" width="120" height="60" as="geometry" />
        </mxCell>
        <mxCell id="Uuxh6VNHOw4QBVwTyGZb-15" value="" style="edgeStyle=orthogonalEdgeStyle;rounded=0;orthogonalLoop=1;jettySize=auto;html=1;" edge="1" parent="1" source="Uuxh6VNHOw4QBVwTyGZb-7" target="Uuxh6VNHOw4QBVwTyGZb-8">
          <mxGeometry relative="1" as="geometry" />
        </mxCell>
        <mxCell id="Uuxh6VNHOw4QBVwTyGZb-7" value="area =(base * altezza)/2" style="rounded=0;whiteSpace=wrap;html=1;" vertex="1" parent="1">
          <mxGeometry x="350" y="330" width="120" height="60" as="geometry" />
        </mxCell>
        <mxCell id="Uuxh6VNHOw4QBVwTyGZb-16" value="" style="edgeStyle=orthogonalEdgeStyle;rounded=0;orthogonalLoop=1;jettySize=auto;html=1;" edge="1" parent="1" source="Uuxh6VNHOw4QBVwTyGZb-8" target="Uuxh6VNHOw4QBVwTyGZb-9">
          <mxGeometry relative="1" as="geometry" />
        </mxCell>
        <mxCell id="Uuxh6VNHOw4QBVwTyGZb-8" value="perimetro" style="shape=parallelogram;perimeter=parallelogramPerimeter;whiteSpace=wrap;html=1;fixedSize=1;" vertex="1" parent="1">
          <mxGeometry x="350" y="410" width="120" height="60" as="geometry" />
        </mxCell>
        <mxCell id="Uuxh6VNHOw4QBVwTyGZb-18" value="" style="edgeStyle=orthogonalEdgeStyle;rounded=0;orthogonalLoop=1;jettySize=auto;html=1;" edge="1" parent="1" source="Uuxh6VNHOw4QBVwTyGZb-9" target="Uuxh6VNHOw4QBVwTyGZb-10">
          <mxGeometry relative="1" as="geometry" />
        </mxCell>
        <mxCell id="Uuxh6VNHOw4QBVwTyGZb-9" value="area" style="shape=parallelogram;perimeter=parallelogramPerimeter;whiteSpace=wrap;html=1;fixedSize=1;" vertex="1" parent="1">
          <mxGeometry x="340" y="500" width="120" height="60" as="geometry" />
        </mxCell>
        <mxCell id="Uuxh6VNHOw4QBVwTyGZb-20" value="" style="edgeStyle=orthogonalEdgeStyle;rounded=0;orthogonalLoop=1;jettySize=auto;html=1;" edge="1" parent="1" source="Uuxh6VNHOw4QBVwTyGZb-10" target="Uuxh6VNHOw4QBVwTyGZb-19">
          <mxGeometry relative="1" as="geometry" />
        </mxCell>
        <mxCell id="Uuxh6VNHOw4QBVwTyGZb-10" value="contorno" style="shape=process;whiteSpace=wrap;html=1;backgroundOutline=1;" vertex="1" parent="1">
          <mxGeometry x="340" y="590" width="120" height="60" as="geometry" />
        </mxCell>
        <mxCell id="Uuxh6VNHOw4QBVwTyGZb-19" value="END" style="ellipse;whiteSpace=wrap;html=1;" vertex="1" parent="1">
          <mxGeometry x="340" y="670" width="120" height="80" as="geometry" />
        </mxCell>
      </root>
    </mxGraphModel>
  </diagram>
</mxfile>
